<?xml version="1.0" standalone="no"?>
<!DOCTYPE svg PUBLIC "-//W3C//DTD SVG 20010904//EN"
 "http://www.w3.org/TR/2001/REC-SVG-20010904/DTD/svg10.dtd">
<svg version="1.0" xmlns="http://www.w3.org/2000/svg"
 width="320.000000pt" height="320.000000pt" viewBox="0 0 320.000000 320.000000"
 preserveAspectRatio="xMidYMid meet">
<metadata>
Created by potrace 1.14, written by Peter Selinger 2001-2017
</metadata>
<g transform="translate(0.000000,320.000000) scale(0.100000,-0.100000)"
fill="#000000" stroke="none">
<path d="M1430 3193 c-42 -7 -183 -32 -212 -38 -147 -30 -400 -147 -548 -252
-121 -87 -286 -253 -372 -373 -58 -82 -163 -273 -184 -335 -4 -11 -8 -22 -9
-25 -1 -3 -5 -12 -8 -20 -15 -34 -47 -144 -47 -161 0 -10 -5 -21 -10 -24 -6
-4 -8 -10 -6 -14 3 -4 1 -23 -4 -42 -27 -106 -35 -407 -14 -539 94 -582 463
-1047 1001 -1261 89 -35 271 -84 358 -95 138 -18 436 -9 535 16 19 5 49 11 65
13 57 9 215 66 317 115 100 48 257 146 308 191 14 13 47 41 74 64 51 44 226
238 226 251 0 3 21 35 47 73 54 79 129 235 166 343 66 195 86 332 82 550 -4
160 -6 186 -21 260 -3 19 -8 44 -10 55 -7 51 -59 207 -98 294 -157 357 -436
645 -778 805 -89 42 -197 84 -228 91 -8 2 -53 12 -100 24 -47 11 -103 23 -125
26 -47 7 -369 14 -405 8z"/>
</g>
</svg>
